<svg class="svg-icon" style="width: 1em; height: 1em;vertical-align: middle;fill: currentColor;overflow: hidden;" viewBox="0 0 1024 1024" version="1.1" xmlns="http://www.w3.org/2000/svg">
	<path fill="#0085a2" d="M959.2 317.6L846.6 107.8C837.8 81.6 813.4 64 785.8 64H544v256h413.4c0.8-1 1-1.4 1.8-2.4zM64 384v512c0 35.4 28.6 64 64 64h768c35.4 0 64-28.6 64-64V384H64z m610.2 298.4l-145.2 142.8c-9.4 9.2-24.6 9.2-34 0l-145.2-142.8c-42.2-41.4-39.6-110.2 7.4-148.4 41-33.4 102.2-27.4 140 9.6l14.8 14.6 14.8-14.6c37.6-37 98.8-43 140-9.6 47 38.2 49.4 106.8 7.4 148.4zM480 320V64H238.2c-27.6 0-52 17.6-60.8 43.8L64.8 317.6c0.8 1 1 1.4 1.8 2.4H480z"/>
</svg>